<svg width="29" height="28" viewBox="0 0 29 28" fill="none" xmlns="http://www.w3.org/2000/svg">
<g clip-path="url(#clip0_5_1231)">
<path d="M22.375 15.75H6.625V25.375C6.625 25.8391 6.80937 26.2842 7.13756 26.6124C7.46575 26.9406 7.91087 27.125 8.375 27.125H20.625C21.0891 27.125 21.5342 26.9406 21.8624 26.6124C22.1906 26.2842 22.375 25.8391 22.375 25.375V15.75Z" stroke="#6E2DFA" stroke-width="2" stroke-linecap="round" stroke-linejoin="round"/>
<path d="M23.25 10.5H5.75C5.26675 10.5 4.875 10.8918 4.875 11.375V14.875C4.875 15.3582 5.26675 15.75 5.75 15.75H23.25C23.7332 15.75 24.125 15.3582 24.125 14.875V11.375C24.125 10.8918 23.7332 10.5 23.25 10.5Z" stroke="#6E2DFA" stroke-width="2" stroke-linecap="round" stroke-linejoin="round"/>
<path d="M14.5 10.5V27.125" stroke="#6E2DFA" stroke-width="2" stroke-linecap="round" stroke-linejoin="round"/>
<path d="M14.5 2.625V0.875" stroke="#01D9B1" stroke-width="2" stroke-linecap="round" stroke-linejoin="round"/>
<path d="M20.625 3.86283L21.8628 2.625" stroke="#6E2DFA" stroke-width="2" stroke-linecap="round" stroke-linejoin="round"/>
<path d="M24.1915 7.33483L25.8085 6.66516" stroke="#01D9B1" stroke-width="2" stroke-linecap="round" stroke-linejoin="round"/>
<path d="M8.37499 3.86283L7.13716 2.625" stroke="#6E2DFA" stroke-width="2" stroke-linecap="round" stroke-linejoin="round"/>
<path d="M4.8085 7.33483L3.1915 6.66516" stroke="#01D9B1" stroke-width="2" stroke-linecap="round" stroke-linejoin="round"/>
</g>
<defs>
<clipPath id="clip0_5_1231">
<rect width="28" height="28" fill="white" transform="translate(0.5)"/>
</clipPath>
</defs>
</svg>
