<svg width="16" height="16" viewBox="0 0 16 16" fill="none" xmlns="http://www.w3.org/2000/svg">
<g clip-path="url(#clip0_63_71)">
<path d="M14.1993 3.7894e-09H11.7993C11.5635 -2.05167e-05 11.3352 0.0833022 11.1549 0.23525C10.9745 0.387197 10.8537 0.597993 10.8137 0.8304L10.4297 3.0704C10.4135 3.1635 10.365 3.24792 10.2927 3.30879C10.2204 3.36966 10.129 3.40309 10.0345 3.4032H1.62168C1.37559 3.40331 1.13276 3.4594 0.911554 3.56722C0.690349 3.67504 0.496569 3.83176 0.344881 4.02554C0.193193 4.21931 0.0875714 4.44505 0.0360113 4.68567C-0.0155488 4.92629 -0.0116968 5.17549 0.0472758 5.4144L1.09528 9.6C1.22255 10.114 1.51829 10.5705 1.93531 10.8967C2.35233 11.223 2.8666 11.4002 3.39608 11.4H9.03928C9.60565 11.3989 10.1529 11.1952 10.5822 10.8257C11.0115 10.4563 11.2945 9.94548 11.3801 9.3856L12.5849 2.3328C12.601 2.23997 12.6493 2.15576 12.7212 2.09492C12.7932 2.03409 12.8842 2.00048 12.9785 2H14.1993C14.4645 2 14.7188 1.89464 14.9064 1.70711C15.0939 1.51957 15.1993 1.26522 15.1993 1C15.1993 0.734784 15.0939 0.48043 14.9064 0.292893C14.7188 0.105357 14.4645 3.7894e-09 14.1993 3.7894e-09Z" fill="white"/>
<path d="M1.59928 14.4C1.59928 14.8243 1.76785 15.2313 2.0679 15.5314C2.36796 15.8314 2.77493 16 3.19928 16C3.62362 16 4.03059 15.8314 4.33065 15.5314C4.6307 15.2313 4.79928 14.8243 4.79928 14.4C4.79928 13.9757 4.6307 13.5687 4.33065 13.2686C4.03059 12.9686 3.62362 12.8 3.19928 12.8C2.77493 12.8 2.36796 12.9686 2.0679 13.2686C1.76785 13.5687 1.59928 13.9757 1.59928 14.4Z" fill="white"/>
<path d="M7.99928 14.4C7.99928 14.8243 8.16785 15.2313 8.46791 15.5314C8.76796 15.8314 9.17493 16 9.59928 16C10.0236 16 10.4306 15.8314 10.7306 15.5314C11.0307 15.2313 11.1993 14.8243 11.1993 14.4C11.1993 13.9757 11.0307 13.5687 10.7306 13.2686C10.4306 12.9686 10.0236 12.8 9.59928 12.8C9.17493 12.8 8.76796 12.9686 8.46791 13.2686C8.16785 13.5687 7.99928 13.9757 7.99928 14.4Z" fill="white"/>
</g>
<defs>
<clipPath id="clip0_63_71">
<rect width="16" height="16" fill="white"/>
</clipPath>
</defs>
</svg>
