<svg width="16" height="14" viewBox="0 0 16 14" fill="none" xmlns="http://www.w3.org/2000/svg">
<path d="M13.7027 0.50842C12.7903 0.018368 11.739 -0.123178 10.7351 0.108843C9.7311 0.340864 8.83919 0.931485 8.21724 1.77613L8.00128 2.03166L7.81411 1.8124C7.19387 0.957586 6.29936 0.357348 5.28986 0.118556C4.28036 -0.120235 3.22138 0.0179185 2.30147 0.50842C1.67202 0.869313 1.13632 1.38132 0.739788 2.00101C0.34326 2.62071 0.0976071 3.32981 0.023664 4.06818C-0.0502791 4.80654 0.0496689 5.5524 0.315031 6.24248C0.580393 6.93257 1.00334 7.54652 1.54801 8.03228L7.03345 13.5796C7.15872 13.7119 7.30831 13.8173 7.4735 13.8895C7.63869 13.9617 7.81618 13.9992 7.9956 14C8.17503 14.0008 8.35281 13.9647 8.51857 13.8939C8.68434 13.8232 8.83478 13.7191 8.96111 13.5878L14.4114 8.07349C14.9095 7.63981 15.3097 7.09927 15.5841 6.48965C15.8585 5.88002 16.0004 5.21601 15.9999 4.544C16.0057 3.72037 15.7953 2.91044 15.3909 2.2C14.9865 1.48956 14.4032 0.90506 13.7027 0.50842Z" fill="#6E2DFA"/>
</svg>
