<svg width="16" height="16" viewBox="0 0 16 16" fill="none" xmlns="http://www.w3.org/2000/svg">
<path d="M8.23956 5.3664C8.3159 5.44064 8.40649 5.49949 8.50617 5.53957C8.60584 5.57965 8.71265 5.60019 8.82047 5.6C8.92805 5.60026 9.03461 5.57959 9.1339 5.5392C9.28394 5.47873 9.41222 5.37621 9.50248 5.24463C9.59274 5.11304 9.64094 4.9583 9.64096 4.8V0.800001C9.64096 0.587828 9.55452 0.384345 9.40065 0.234316C9.24677 0.0842868 9.03808 1.28104e-06 8.82047 1.28104e-06H4.71799C4.5555 -0.000282183 4.39658 0.0464833 4.26138 0.134369C4.12618 0.222255 4.02078 0.347303 3.95856 0.49366C3.89634 0.640017 3.88009 0.801093 3.91187 0.956466C3.94365 1.11184 4.02203 1.25451 4.13708 1.3664L5.46464 2.6592L0.300437 7.6928C0.10807 7.88036 -2.86648e-09 8.13475 0 8.4C2.86648e-09 8.66525 0.10807 8.91964 0.300437 9.1072C0.492803 9.29476 0.753708 9.40013 1.02576 9.40013C1.2978 9.40013 1.55871 9.29476 1.75107 9.1072L6.91363 4.072L8.23956 5.3664Z" fill="#736B8E"/>
<path d="M15.6995 6.8928C15.6043 6.79991 15.4912 6.72623 15.3667 6.67596C15.2423 6.62569 15.1089 6.59981 14.9742 6.59981C14.8395 6.59981 14.7061 6.62569 14.5816 6.67596C14.4572 6.72623 14.3441 6.79991 14.2489 6.8928L9.08631 11.928L7.76039 10.6336C7.64563 10.5214 7.4993 10.445 7.33995 10.414C7.1806 10.383 7.01539 10.3989 6.86529 10.4595C6.71518 10.5202 6.58693 10.623 6.49679 10.7548C6.40665 10.8866 6.35869 11.0416 6.35898 11.2V15.2C6.35898 15.4122 6.44543 15.6157 6.5993 15.7657C6.75317 15.9157 6.96187 16 7.17948 16H11.282C11.4444 16.0003 11.6034 15.9535 11.7386 15.8656C11.8738 15.7777 11.9792 15.6527 12.0414 15.5063C12.1036 15.36 12.1199 15.1989 12.0881 15.0435C12.0563 14.8882 11.9779 14.7455 11.8629 14.6336L10.5353 13.3408L15.6995 8.3072C15.7948 8.21434 15.8703 8.10409 15.9219 7.98275C15.9735 7.8614 16 7.73134 16 7.6C16 7.46866 15.9735 7.3386 15.9219 7.21726C15.8703 7.09591 15.7948 6.98566 15.6995 6.8928Z" fill="#736B8E"/>
</svg>
