<svg width="8" height="9" viewBox="0 0 8 9" fill="none" xmlns="http://www.w3.org/2000/svg">
<path d="M7.89977 4.02537L4.25413 0.600634C4.22109 0.56894 4.18169 0.543726 4.13822 0.526453C4.09474 0.509179 4.04805 0.50019 4.00086 0.500006C3.95391 0.49975 3.90737 0.508212 3.86391 0.524904C3.82045 0.541597 3.78092 0.566192 3.74759 0.59728L0.105516 4.02537C0.0720816 4.05655 0.045544 4.09365 0.0274339 4.13453C0.00932394 4.1754 0 4.21924 0 4.26352C0 4.30781 0.00932394 4.35165 0.0274339 4.39252C0.045544 4.4334 0.0720816 4.4705 0.105516 4.50168L1.08649 5.42411C1.153 5.48457 1.24189 5.51836 1.3344 5.51836C1.42691 5.51836 1.51581 5.48457 1.58232 5.42411L2.73808 4.3977C2.7526 4.3894 2.76925 4.38502 2.78624 4.38502C2.80322 4.38502 2.81988 4.3894 2.8344 4.3977C2.85035 4.40424 2.86391 4.41504 2.87342 4.42875C2.88293 4.44245 2.88796 4.45848 2.8879 4.47485V8.16457C2.8879 8.25353 2.92549 8.33885 2.99238 8.40175C3.05928 8.46466 3.15001 8.5 3.24462 8.5H4.67148C4.76609 8.5 4.85682 8.46466 4.92372 8.40175C4.99062 8.33885 5.0282 8.25353 5.0282 8.16457V4.47485C5.02814 4.45848 5.03317 4.44245 5.04268 4.42875C5.05219 4.41504 5.06576 4.40424 5.08171 4.3977C5.09635 4.38975 5.11296 4.38556 5.12986 4.38556C5.14677 4.38556 5.16338 4.38975 5.17802 4.3977L6.42296 5.4543C6.48912 5.51279 6.57651 5.54535 6.66731 5.54535C6.75812 5.54535 6.84551 5.51279 6.91166 5.4543L7.89977 4.49162C7.96406 4.42907 8 4.34548 8 4.25849C8 4.1715 7.96406 4.08792 7.89977 4.02537Z" fill="#00B493"/>
</svg>
