<svg width="17" height="16" viewBox="0 0 17 16" fill="none" xmlns="http://www.w3.org/2000/svg">
<g clip-path="url(#clip0_901_7917)">
<path d="M8.48071 1.442C10.6167 1.442 10.87 1.45 11.714 1.48867C13.882 1.58733 14.8947 2.616 14.9934 4.768C15.032 5.61133 15.0394 5.86467 15.0394 8.00067C15.0394 10.1373 15.0314 10.39 14.9934 11.2333C14.894 13.3833 13.884 14.414 11.714 14.5127C10.87 14.5513 10.618 14.5593 8.48071 14.5593C6.34471 14.5593 6.09138 14.5513 5.24805 14.5127C3.07471 14.4133 2.06738 13.38 1.96871 11.2327C1.93005 10.3893 1.92205 10.1367 1.92205 8C1.92205 5.864 1.93071 5.61133 1.96871 4.76733C2.06805 2.616 3.07805 1.58667 5.24805 1.488C6.09205 1.45 6.34471 1.442 8.48071 1.442ZM8.48071 0C6.30805 0 6.03605 0.00933333 5.18271 0.048C2.27738 0.181333 0.662713 1.79333 0.52938 4.70133C0.490046 5.55533 0.480713 5.82733 0.480713 8C0.480713 10.1727 0.490046 10.4453 0.528713 11.2987C0.662046 14.204 2.27405 15.8187 5.18205 15.952C6.03605 15.9907 6.30805 16 8.48071 16C10.6534 16 10.926 15.9907 11.7794 15.952C14.682 15.8187 16.3007 14.2067 16.432 11.2987C16.4714 10.4453 16.4807 10.1727 16.4807 8C16.4807 5.82733 16.4714 5.55533 16.4327 4.702C16.302 1.79933 14.688 0.182 11.78 0.0486667C10.926 0.00933333 10.6534 0 8.48071 0V0ZM8.48071 3.892C6.21205 3.892 4.37271 5.73133 4.37271 8C4.37271 10.2687 6.21205 12.1087 8.48071 12.1087C10.7494 12.1087 12.5887 10.2693 12.5887 8C12.5887 5.73133 10.7494 3.892 8.48071 3.892ZM8.48071 10.6667C7.00805 10.6667 5.81405 9.47333 5.81405 8C5.81405 6.52733 7.00805 5.33333 8.48071 5.33333C9.95338 5.33333 11.1474 6.52733 11.1474 8C11.1474 9.47333 9.95338 10.6667 8.48071 10.6667ZM12.7514 2.77C12.2207 2.77 11.7907 3.2 11.7907 3.73C11.7907 4.26 12.2207 4.69 12.7514 4.69C13.2814 4.69 13.7107 4.26 13.7107 3.73C13.7107 3.2 13.2814 2.77 12.7514 2.77Z" fill="#736B8E"/>
</g>
<defs>
<clipPath id="clip0_901_7917">
<rect width="16" height="16" fill="white" transform="translate(0.480713)"/>
</clipPath>
</defs>
</svg>
