<svg width="16" height="17" viewBox="0 0 16 17" fill="none" xmlns="http://www.w3.org/2000/svg">
<path d="M3.5 2H1.5C1.23478 2 0.98043 2.10536 0.792893 2.29289C0.605357 2.48043 0.5 2.73478 0.5 3V15C0.5 15.2652 0.605357 15.5196 0.792893 15.7071C0.98043 15.8946 1.23478 16 1.5 16H14.5C14.7652 16 15.0196 15.8946 15.2071 15.7071C15.3946 15.5196 15.5 15.2652 15.5 15V3C15.5 2.73478 15.3946 2.48043 15.2071 2.29289C15.0196 2.10536 14.7652 2 14.5 2H7.5" stroke="#736B8E" stroke-linecap="round" stroke-linejoin="round"/>
<path d="M7.5 8L5.5 6.50067L3.5 8.00067V1.50067C3.49991 1.43495 3.51278 1.36986 3.53787 1.30912C3.56296 1.24838 3.59977 1.19318 3.64621 1.14668C3.69265 1.10018 3.7478 1.06329 3.8085 1.03812C3.86921 1.01295 3.93428 1 4 1H7C7.13261 1 7.25979 1.05268 7.35355 1.14645C7.44732 1.24021 7.5 1.36739 7.5 1.5V8Z" stroke="#736B8E" stroke-linecap="round" stroke-linejoin="round"/>
<path d="M3.5 13H10.5" stroke="#736B8E" stroke-linecap="round" stroke-linejoin="round"/>
<path d="M3.5 10H12.5" stroke="#736B8E" stroke-linecap="round" stroke-linejoin="round"/>
<path d="M12.5 7H9.5" stroke="#736B8E" stroke-linecap="round" stroke-linejoin="round"/>
</svg>
