<svg width="17" height="16" viewBox="0 0 17 16" fill="none" xmlns="http://www.w3.org/2000/svg">
<g clip-path="url(#clip0_901_7909)">
<path d="M16.4807 3.03738C15.892 3.29871 15.2594 3.47471 14.5954 3.55405C15.2734 3.14805 15.794 2.50471 16.0387 1.73805C15.4047 2.11405 14.702 2.38738 13.954 2.53471C13.356 1.89671 12.502 1.49805 11.558 1.49805C9.43871 1.49805 7.88138 3.47538 8.36005 5.52805C5.63271 5.39138 3.21405 4.08471 1.59471 2.09871C0.734713 3.57405 1.14871 5.50405 2.61005 6.48138C2.07271 6.46405 1.56605 6.31671 1.12405 6.07071C1.08805 7.59138 2.17805 9.01405 3.75671 9.33071C3.29471 9.45605 2.78871 9.48538 2.27405 9.38671C2.69138 10.6907 3.90338 11.6394 5.34071 11.666C3.96071 12.748 2.22205 13.2314 0.480713 13.026C1.93338 13.9574 3.65938 14.5007 5.51271 14.5007C11.6074 14.5007 15.0507 9.35338 14.8427 4.73671C15.484 4.27338 16.0407 3.69538 16.4807 3.03738Z" fill="#736B8E"/>
</g>
<defs>
<clipPath id="clip0_901_7909">
<rect width="16" height="16" fill="white" transform="translate(0.480713)"/>
</clipPath>
</defs>
</svg>
