<svg width="26" height="26" viewBox="0 0 26 26" fill="none" xmlns="http://www.w3.org/2000/svg">
<g clip-path="url(#clip0_8_5308)">
<path d="M13 0C9.56485 0.0100204 6.27412 1.38293 3.85044 3.81725C1.42675 6.25157 0.0682458 9.54827 0.073256 12.9834C0.0782662 16.4185 1.44638 19.7113 3.87716 22.1385C6.30794 24.5657 9.60265 25.929 13.0378 25.929C16.4729 25.929 19.7676 24.5657 22.1984 22.1385C24.6292 19.7113 25.9973 16.4185 26.0023 12.9834C26.0073 9.54827 24.6488 6.25157 22.2251 3.81725C19.8015 1.38293 16.5107 0.0100204 13.0756 0L13 0Z" fill="#345D9D"/>
<path d="M13.2363 13.2907L12.0912 17.1364H18.1846C18.2249 17.1343 18.2652 17.1408 18.3028 17.1553C18.3404 17.1694 18.3749 17.1907 18.4044 17.2179C18.4337 17.2459 18.4574 17.2792 18.4742 17.316C18.4919 17.3529 18.5016 17.3932 18.5025 17.4342V17.5346L17.9719 19.3629C17.9492 19.4496 17.8969 19.5257 17.8242 19.578C17.7521 19.6309 17.6641 19.6576 17.5748 19.6536H8.25024L9.81261 14.3355L8.0647 14.8649L8.46179 13.6465L10.2097 13.1158L12.4091 5.63491C12.4329 5.54872 12.4854 5.47325 12.558 5.421C12.6297 5.36812 12.7171 5.34067 12.8062 5.343H15.1698C15.2101 5.34197 15.2503 5.34879 15.288 5.36309C15.3261 5.37693 15.361 5.39822 15.3908 5.42573C15.4206 5.45321 15.4444 5.48662 15.4605 5.52382C15.4775 5.56098 15.4867 5.60118 15.4877 5.642V5.74364L13.6334 12.0486L15.3825 11.518L15.0091 12.7873L13.2363 13.2907Z" fill="white"/>
</g>
<defs>
<clipPath id="clip0_8_5308">
<rect width="26" height="26" fill="white"/>
</clipPath>
</defs>
</svg>
