<svg width="26" height="26" viewBox="0 0 26 26" fill="none" xmlns="http://www.w3.org/2000/svg">
<g clip-path="url(#clip0_8_5334)">
<path d="M13 26C20.1797 26 26 20.1797 26 13C26 5.8203 20.1797 0 13 0C5.8203 0 0 5.8203 0 13C0 20.1797 5.8203 26 13 26Z" fill="#26A17B"/>
<path fill-rule="evenodd" clip-rule="evenodd" d="M14.5618 14.1239V14.1223C14.4724 14.1288 14.0117 14.1564 12.9839 14.1564C12.1633 14.1564 11.5856 14.132 11.3825 14.1223V14.1247C8.22346 13.9858 5.86558 13.4357 5.86558 12.7776C5.86558 12.1203 8.22346 11.5702 11.3825 11.4289V13.5771C11.5888 13.5917 12.1803 13.6267 12.9977 13.6267C13.9784 13.6267 14.47 13.586 14.5618 13.5779V11.4305C17.7143 11.571 20.0665 12.1211 20.0665 12.7776C20.0665 13.4357 17.7143 13.9842 14.5618 14.1239ZM14.5618 11.207V9.28466H18.9606V6.35316H6.98358V9.28466H11.3825V11.2062C7.80746 11.3704 5.1189 12.0789 5.1189 12.9271C5.1189 13.7754 7.80746 14.483 11.3825 14.648V20.8084H14.5618V14.6464C18.1311 14.4822 20.8131 13.7745 20.8131 12.9271C20.8131 12.0797 18.1311 11.372 14.5618 11.207Z" fill="white"/>
</g>
<defs>
<clipPath id="clip0_8_5334">
<rect width="26" height="26" fill="white"/>
</clipPath>
</defs>
</svg>
