<svg width="26" height="26" viewBox="0 0 26 26" fill="none" xmlns="http://www.w3.org/2000/svg">
<g clip-path="url(#clip0_8_5352)">
<path d="M13 26C20.1797 26 26 20.1797 26 13C26 5.8203 20.1797 0 13 0C5.8203 0 0 5.8203 0 13C0 20.1797 5.8203 26 13 26Z" fill="#23292F"/>
<path d="M18.7444 6.5H21.0925L16.2053 11.3401C15.3509 12.1819 14.1995 12.6538 13 12.6538C11.8005 12.6538 10.6491 12.1819 9.79469 11.3401L4.90344 6.5H7.25563L10.9688 10.1749C11.5095 10.7086 12.2386 11.0079 12.9984 11.0079C13.7581 11.0079 14.4873 10.7086 15.028 10.1749L18.7444 6.5ZM7.22719 19.9574H4.875L9.79469 15.0881C10.6491 14.2463 11.8005 13.7744 13 13.7744C14.1995 13.7744 15.3509 14.2463 16.2053 15.0881L21.125 19.9566H18.7728L15.0312 16.25C14.4905 15.7163 13.7614 15.4171 13.0016 15.4171C12.2419 15.4171 11.5127 15.7163 10.972 16.25L7.22638 19.9574H7.22719Z" fill="white"/>
</g>
<defs>
<clipPath id="clip0_8_5352">
<rect width="26" height="26" fill="white"/>
</clipPath>
</defs>
</svg>
